<mxfile host="app.diagrams.net" agent="Mozilla/5.0 (Windows NT 10.0; Win64; x64) AppleWebKit/537.36 (KHTML, like Gecko) Chrome/130.0.0.0 Safari/537.36" version="24.8.6">
  <diagram name="Trang-1" id="OEblAST9vj8k5Sl75nSx">
    <mxGraphModel dx="1221" dy="1928" grid="1" gridSize="10" guides="1" tooltips="1" connect="1" arrows="1" fold="1" page="1" pageScale="1" pageWidth="827" pageHeight="1169" math="0" shadow="0">
      <root>
        <mxCell id="0" />
        <mxCell id="1" parent="0" />
        <mxCell id="NoHG5mLsVnP6viQ_-lM6-1" value="&lt;h3&gt;Start&lt;/h3&gt;" style="ellipse;whiteSpace=wrap;html=1;" vertex="1" parent="1">
          <mxGeometry x="354" y="-1070" width="120" height="80" as="geometry" />
        </mxCell>
        <mxCell id="NoHG5mLsVnP6viQ_-lM6-2" value="" style="endArrow=classic;html=1;rounded=0;exitX=0.5;exitY=1;exitDx=0;exitDy=0;entryX=0.5;entryY=0;entryDx=0;entryDy=0;" edge="1" parent="1" source="NoHG5mLsVnP6viQ_-lM6-1" target="NoHG5mLsVnP6viQ_-lM6-3">
          <mxGeometry width="50" height="50" relative="1" as="geometry">
            <mxPoint x="390" y="-980" as="sourcePoint" />
            <mxPoint x="414" y="-930" as="targetPoint" />
          </mxGeometry>
        </mxCell>
        <mxCell id="NoHG5mLsVnP6viQ_-lM6-3" value="&lt;h3&gt;Nháº­p number a,b&lt;/h3&gt;" style="shape=parallelogram;perimeter=parallelogramPerimeter;whiteSpace=wrap;html=1;fixedSize=1;" vertex="1" parent="1">
          <mxGeometry x="341" y="-940" width="146" height="60" as="geometry" />
        </mxCell>
        <mxCell id="NoHG5mLsVnP6viQ_-lM6-5" value="" style="endArrow=classic;html=1;rounded=0;exitX=0.5;exitY=1;exitDx=0;exitDy=0;entryX=0.5;entryY=0;entryDx=0;entryDy=0;" edge="1" parent="1" source="NoHG5mLsVnP6viQ_-lM6-3" target="NoHG5mLsVnP6viQ_-lM6-7">
          <mxGeometry width="50" height="50" relative="1" as="geometry">
            <mxPoint x="390" y="-780" as="sourcePoint" />
            <mxPoint x="414" y="-810" as="targetPoint" />
          </mxGeometry>
        </mxCell>
        <mxCell id="NoHG5mLsVnP6viQ_-lM6-7" value="&lt;h3&gt;&lt;b&gt;total = a+b&lt;/b&gt;&lt;/h3&gt;" style="rounded=0;whiteSpace=wrap;html=1;" vertex="1" parent="1">
          <mxGeometry x="354" y="-810" width="120" height="60" as="geometry" />
        </mxCell>
        <mxCell id="NoHG5mLsVnP6viQ_-lM6-8" value="" style="endArrow=classic;html=1;rounded=0;exitX=0.5;exitY=1;exitDx=0;exitDy=0;entryX=0.5;entryY=0;entryDx=0;entryDy=0;" edge="1" parent="1" source="NoHG5mLsVnP6viQ_-lM6-7" target="NoHG5mLsVnP6viQ_-lM6-9">
          <mxGeometry width="50" height="50" relative="1" as="geometry">
            <mxPoint x="390" y="-780" as="sourcePoint" />
            <mxPoint x="414" y="-690" as="targetPoint" />
          </mxGeometry>
        </mxCell>
        <mxCell id="NoHG5mLsVnP6viQ_-lM6-9" value="&lt;h3&gt;In total&lt;/h3&gt;" style="shape=parallelogram;perimeter=parallelogramPerimeter;whiteSpace=wrap;html=1;fixedSize=1;" vertex="1" parent="1">
          <mxGeometry x="354" y="-680" width="120" height="60" as="geometry" />
        </mxCell>
        <mxCell id="NoHG5mLsVnP6viQ_-lM6-10" value="" style="endArrow=classic;html=1;rounded=0;exitX=0.5;exitY=1;exitDx=0;exitDy=0;" edge="1" parent="1" source="NoHG5mLsVnP6viQ_-lM6-9" target="NoHG5mLsVnP6viQ_-lM6-11">
          <mxGeometry width="50" height="50" relative="1" as="geometry">
            <mxPoint x="390" y="-680" as="sourcePoint" />
            <mxPoint x="440" y="-730" as="targetPoint" />
          </mxGeometry>
        </mxCell>
        <mxCell id="NoHG5mLsVnP6viQ_-lM6-11" value="&lt;h3&gt;End&lt;/h3&gt;" style="ellipse;whiteSpace=wrap;html=1;" vertex="1" parent="1">
          <mxGeometry x="354" y="-550" width="120" height="80" as="geometry" />
        </mxCell>
      </root>
    </mxGraphModel>
  </diagram>
</mxfile>
